<svg width="447.367188" height="620.367615" viewBox="0 0 447.367 620.368" fill="none" xmlns="http://www.w3.org/2000/svg" xmlns:xlink="http://www.w3.org/1999/xlink">
	<desc>
			Created with Pixso.
	</desc>
	<defs>
		<filter id="filter_14_3868_dd" x="0.000000" y="0.000000" width="447.367188" height="620.367615" filterUnits="userSpaceOnUse" color-interpolation-filters="sRGB">
			<feFlood flood-opacity="0" result="BackgroundImageFix"/>
			<feColorMatrix in="SourceAlpha" type="matrix" values="0 0 0 0 0 0 0 0 0 0 0 0 0 0 0 0 0 0 127 0" result="hardAlpha"/>
			<feMorphology radius="-7.56738" in="" result="BackgroundImageFix"/>
			<feOffset dx="0" dy="12.6123"/>
			<feGaussianBlur stdDeviation="14.0837"/>
			<feComposite in2="hardAlpha" operator="out" k2="-1" k3="1"/>
			<feColorMatrix type="matrix" values="0 0 0 0 0 0 0 0 0 0 0 0 0 0 0 0 0 0 0.13 0"/>
			<feBlend mode="normal" in2="BackgroundImageFix" result="effect_dropShadow_1"/>
			<feBlend mode="normal" in="SourceGraphic" in2="effect_dropShadow_1" result="shape"/>
		</filter>
		<filter id="filter_14_3949_dd" x="99.640625" y="52.245026" width="247.074219" height="284.280640" filterUnits="userSpaceOnUse" color-interpolation-filters="sRGB">
			<feFlood flood-opacity="0" result="BackgroundImageFix"/>
			<feColorMatrix in="SourceAlpha" type="matrix" values="0 0 0 0 0 0 0 0 0 0 0 0 0 0 0 0 0 0 127 0" result="hardAlpha"/>
			<feMorphology radius="-9.15954" in="" result="BackgroundImageFix"/>
			<feOffset dx="0" dy="15.2659"/>
			<feGaussianBlur stdDeviation="17.0469"/>
			<feComposite in2="hardAlpha" operator="out" k2="-1" k3="1"/>
			<feColorMatrix type="matrix" values="0 0 0 0 0 0 0 0 0 0 0 0 0 0 0 0 0 0 0.3 0"/>
			<feBlend mode="normal" in2="BackgroundImageFix" result="effect_dropShadow_1"/>
			<feBlend mode="normal" in="SourceGraphic" in2="effect_dropShadow_1" result="shape"/>
		</filter>
		<clipPath id="clip14_3869">
			<rect id="Обложка карточки" rx="29.684692" width="377.369385" height="313.369385" transform="translate(34.998901 22.386810)" fill="white" fill-opacity="0"/>
		</clipPath>
	</defs>
	<g filter="url(#filter_14_3868_dd)">
		<rect id="Frame 2043683139" rx="30.315308" width="378.630615" height="551.630615" transform="translate(34.368286 21.756195)" fill="#FFFFFF" fill-opacity="1.000000"/>
		<rect id="Обложка карточки" rx="29.684692" width="377.369385" height="313.369385" transform="translate(34.998901 22.386810)" fill="#271A58" fill-opacity="1.000000"/>
		<g clip-path="url(#clip14_3869)">
			<rect id="Frame 2043683103" rx="18.775000" width="105.960831" height="141.447784" transform="translate(-12.958008 -84.659210) rotate(10.000000)" fill="#565EEF" fill-opacity="1.000000"/>
			<path id="?" d="M23.46 -4.93Q22.11 -3.55 21.69 -1.13L30.29 0.39Q30.43 -0.38 30.82 -0.99Q31.09 -1.42 31.48 -1.77Q32.44 -2.63 34.33 -3.74Q36.06 -4.78 37.17 -5.65Q38.3 -6.54 39.25 -7.94Q40.2 -9.34 40.55 -11.31Q40.95 -13.54 40.31 -15.42Q39.72 -17.18 38.23 -18.64Q35.15 -21.65 29.4 -22.67Q24.27 -23.57 20.3 -22.32Q17.8 -21.54 15.85 -20.04Q14.71 -19.16 13.76 -18.04L20.29 -12.9Q21.14 -13.9 22.22 -14.52Q22.73 -14.81 23.28 -15.02Q23.76 -15.2 24.26 -15.3Q25.55 -15.57 26.95 -15.32Q28.83 -14.99 29.86 -13.93Q30.43 -13.35 30.61 -12.66Q30.77 -12.1 30.65 -11.46Q30.61 -11.21 30.52 -10.98Q30.26 -10.26 29.63 -9.67Q28.8 -8.91 27.17 -7.84Q24.81 -6.32 23.46 -4.93ZM20.99 11.2Q22.11 12.11 23.73 12.4Q25.48 12.7 26.9 12.17Q27.46 11.96 27.96 11.62Q28.89 11.01 29.44 10.16Q29.96 9.34 30.15 8.29Q30.37 7.04 30.04 5.96Q29.79 5.15 29.24 4.44Q28.94 4.06 28.59 3.74Q27.39 2.67 25.52 2.34Q23.63 2 22.13 2.63Q21.71 2.8 21.32 3.05Q20.59 3.51 20.1 4.16Q19.39 5.08 19.17 6.36Q18.98 7.4 19.2 8.35Q19.42 9.34 20.08 10.23Q20.48 10.78 20.99 11.2Z" fill="#FFFFFF" fill-opacity="1.000000" fill-rule="evenodd"/>
			<path id="?" d="M21.69 -1.13Q22.11 -3.55 23.46 -4.93Q24.81 -6.32 27.17 -7.84Q28.8 -8.91 29.63 -9.67Q30.47 -10.45 30.65 -11.46Q30.9 -12.87 29.86 -13.93Q28.83 -14.99 26.95 -15.32Q25.02 -15.66 23.28 -15.02Q21.55 -14.37 20.29 -12.9L13.76 -18.04Q16.34 -21.07 20.3 -22.32Q24.27 -23.57 29.4 -22.67Q35.15 -21.65 38.23 -18.64Q41.31 -15.62 40.55 -11.31Q40.2 -9.34 39.25 -7.94Q38.3 -6.54 37.17 -5.65Q36.06 -4.78 34.33 -3.74Q32.44 -2.63 31.48 -1.77Q30.53 -0.92 30.29 0.39L21.69 -1.13ZM23.73 12.4Q21.36 11.98 20.08 10.23Q18.79 8.48 19.17 6.36Q19.55 4.17 21.32 3.05Q23.1 1.91 25.52 2.34Q27.94 2.76 29.24 4.44Q30.54 6.11 30.15 8.29Q29.77 10.42 27.96 11.62Q26.16 12.82 23.73 12.4Z" stroke="#271A58" stroke-opacity="1.000000" stroke-width="0.511614"/>
			<rect id="Frame 2043683103" rx="18.775000" width="105.960831" height="141.447784" transform="translate(-12.958008 -84.659210) rotate(10.000000)" stroke="#271A58" stroke-opacity="1.000000" stroke-width="0.500000"/>
			<rect id="Frame 2043683100" rx="18.775000" width="105.960831" height="141.447784" transform="translate(98.040039 -65.087433) rotate(10.000000)" fill="#009EE4" fill-opacity="1.000000"/>
			<path id="?" d="M134.45 14.64Q133.11 16.03 132.68 18.45L141.29 19.96Q141.43 19.19 141.82 18.58Q142.09 18.15 142.48 17.8Q143.43 16.94 145.33 15.83Q147.05 14.79 148.17 13.92Q149.3 13.04 150.25 11.63Q151.2 10.23 151.55 8.26Q151.94 6.03 151.31 4.15Q150.72 2.39 149.23 0.93Q146.15 -2.08 140.4 -3.1Q135.27 -4 131.3 -2.75Q128.8 -1.96 126.85 -0.47Q125.71 0.41 124.76 1.54L131.29 6.67Q132.14 5.67 133.22 5.05Q133.72 4.76 134.28 4.55Q134.76 4.38 135.26 4.27Q136.55 4.01 137.95 4.25Q139.83 4.58 140.86 5.64Q141.43 6.22 141.61 6.91Q141.76 7.47 141.65 8.11Q141.61 8.36 141.52 8.6Q141.26 9.32 140.63 9.9Q139.8 10.67 138.17 11.73Q135.81 13.25 134.45 14.64ZM131.99 30.77Q133.11 31.68 134.73 31.97Q136.47 32.28 137.9 31.74Q138.45 31.53 138.96 31.19Q139.88 30.58 140.43 29.73Q140.96 28.91 141.15 27.86Q141.37 26.61 141.04 25.53Q140.79 24.73 140.23 24.01Q139.94 23.63 139.59 23.32Q138.39 22.24 136.52 21.91Q134.62 21.58 133.13 22.2Q132.71 22.37 132.32 22.62Q131.59 23.08 131.1 23.73Q130.39 24.65 130.17 25.93Q129.98 26.97 130.2 27.92Q130.42 28.91 131.07 29.8Q131.48 30.35 131.99 30.77Z" fill="#FFFFFF" fill-opacity="1.000000" fill-rule="evenodd"/>
			<path id="?" d="M132.68 18.45Q133.11 16.03 134.45 14.64Q135.81 13.25 138.17 11.73Q139.8 10.67 140.63 9.9Q141.47 9.12 141.65 8.11Q141.9 6.7 140.86 5.64Q139.83 4.58 137.95 4.25Q136.01 3.91 134.28 4.55Q132.55 5.2 131.29 6.67L124.76 1.54Q127.34 -1.5 131.3 -2.75Q135.27 -4 140.4 -3.1Q146.15 -2.08 149.23 0.93Q152.31 3.95 151.55 8.26Q151.2 10.23 150.25 11.63Q149.3 13.04 148.17 13.92Q147.05 14.79 145.33 15.83Q143.43 16.94 142.48 17.8Q141.52 18.65 141.29 19.96L132.68 18.45ZM134.73 31.97Q132.36 31.55 131.07 29.8Q129.79 28.05 130.17 25.93Q130.55 23.74 132.32 22.62Q134.09 21.48 136.52 21.91Q138.94 22.34 140.23 24.01Q141.53 25.68 141.15 27.86Q140.77 29.99 138.96 31.19Q137.15 32.4 134.73 31.97Z" stroke="#271A58" stroke-opacity="1.000000" stroke-width="0.511614"/>
			<rect id="Frame 2043683100" rx="18.775000" width="105.960831" height="141.447784" transform="translate(98.040039 -65.087433) rotate(10.000000)" stroke="#271A58" stroke-opacity="1.000000" stroke-width="0.500000"/>
			<rect id="Frame 2043683094" rx="18.775000" width="105.960831" height="141.447784" transform="translate(209.037109 -45.515533) rotate(10.000000)" fill="#AD61FF" fill-opacity="1.000000"/>
			<path id="?" d="M244.78 33.62Q243.12 35.33 242.59 38.33L253.26 40.22Q253.43 39.26 253.91 38.5Q254.25 37.97 254.73 37.53Q255.92 36.47 258.26 35.09Q260.4 33.81 261.79 32.72Q263.19 31.63 264.36 29.89Q265.54 28.15 265.98 25.71Q266.46 22.95 265.68 20.61Q264.95 18.43 263.1 16.63Q259.28 12.89 252.15 11.63Q245.8 10.51 240.88 12.06Q237.78 13.03 235.36 14.89Q233.95 15.98 232.76 17.37L240.86 23.74Q241.92 22.5 243.25 21.73Q243.88 21.37 244.57 21.12Q245.17 20.89 245.79 20.77Q247.39 20.44 249.12 20.74Q251.45 21.15 252.72 22.46Q253.43 23.18 253.66 24.04Q253.85 24.73 253.71 25.52Q253.65 25.83 253.55 26.13Q253.22 27.02 252.44 27.74Q251.41 28.69 249.39 30.01Q246.46 31.89 244.78 33.62ZM241.73 53.61Q243.11 54.74 245.13 55.1Q247.29 55.48 249.05 54.81Q249.74 54.55 250.37 54.14Q251.52 53.38 252.2 52.32Q252.85 51.3 253.08 50.01Q253.36 48.46 252.95 47.12Q252.64 46.12 251.95 45.24Q251.58 44.76 251.15 44.37Q249.66 43.04 247.34 42.63Q245 42.21 243.14 42.98Q242.62 43.2 242.14 43.51Q241.24 44.08 240.62 44.88Q239.75 46.02 239.47 47.61Q239.24 48.9 239.51 50.08Q239.78 51.31 240.6 52.41Q241.1 53.09 241.73 53.61Z" fill="#FFFFFF" fill-opacity="1.000000" fill-rule="evenodd"/>
			<path id="?" d="M242.59 38.33Q243.12 35.33 244.78 33.62Q246.46 31.89 249.39 30.01Q251.41 28.69 252.44 27.74Q253.48 26.78 253.71 25.52Q254.01 23.78 252.72 22.46Q251.45 21.15 249.12 20.74Q246.72 20.32 244.57 21.12Q242.42 21.91 240.86 23.74L232.76 17.37Q235.97 13.61 240.88 12.06Q245.8 10.51 252.15 11.63Q259.28 12.89 263.1 16.63Q266.92 20.36 265.98 25.71Q265.54 28.15 264.36 29.89Q263.19 31.63 261.79 32.72Q260.4 33.81 258.26 35.09Q255.92 36.47 254.73 37.53Q253.55 38.59 253.26 40.22L242.59 38.33ZM245.13 55.1Q242.19 54.58 240.6 52.41Q239 50.24 239.47 47.61Q239.95 44.9 242.14 43.51Q244.34 42.1 247.34 42.63Q250.34 43.16 251.95 45.24Q253.56 47.3 253.08 50.01Q252.62 52.64 250.37 54.14Q248.13 55.63 245.13 55.1Z" stroke="#271A58" stroke-opacity="1.000000" stroke-width="0.511614"/>
			<rect id="Frame 2043683094" rx="18.775000" width="105.960831" height="141.447784" transform="translate(209.037109 -45.515533) rotate(10.000000)" stroke="#271A58" stroke-opacity="1.000000" stroke-width="0.500000"/>
			<rect id="Frame 2043683095" rx="18.775000" width="105.960831" height="141.447784" transform="translate(320.035156 -25.943634) rotate(10.000000)" fill="#F25050" fill-opacity="1.000000"/>
			<path id="?" d="M355.78 53.19Q354.12 54.91 353.59 57.91L364.26 59.79Q364.43 58.83 364.91 58.07Q365.25 57.54 365.73 57.1Q366.92 56.05 369.26 54.66Q371.4 53.38 372.79 52.3Q374.19 51.2 375.36 49.46Q376.54 47.72 376.97 45.28Q377.46 42.52 376.68 40.19Q375.95 38 374.1 36.2Q370.28 32.46 363.15 31.2Q356.8 30.08 351.87 31.63Q348.78 32.61 346.36 34.47Q344.95 35.55 343.76 36.95L351.86 43.31Q352.92 42.07 354.25 41.3Q354.88 40.94 355.57 40.69Q356.17 40.47 356.78 40.34Q358.38 40.01 360.12 40.31Q362.44 40.72 363.72 42.03Q364.43 42.76 364.66 43.61Q364.84 44.31 364.7 45.09Q364.65 45.4 364.54 45.7Q364.22 46.59 363.44 47.31Q362.41 48.26 360.39 49.58Q357.46 51.47 355.78 53.19ZM352.73 73.18Q354.11 74.31 356.13 74.67Q358.29 75.05 360.05 74.39Q360.74 74.13 361.37 73.71Q362.51 72.95 363.2 71.89Q363.85 70.87 364.08 69.58Q364.35 68.03 363.94 66.69Q363.64 65.69 362.95 64.81Q362.58 64.34 362.14 63.94Q360.66 62.61 358.34 62.2Q355.99 61.79 354.14 62.56Q353.62 62.77 353.14 63.08Q352.23 63.66 351.62 64.46Q350.75 65.59 350.47 67.18Q350.24 68.47 350.5 69.65Q350.78 70.88 351.59 71.98Q352.1 72.66 352.73 73.18Z" fill="#FFFFFF" fill-opacity="1.000000" fill-rule="evenodd"/>
			<path id="?" d="M353.59 57.91Q354.12 54.91 355.78 53.19Q357.46 51.47 360.39 49.58Q362.41 48.26 363.44 47.31Q364.48 46.35 364.7 45.09Q365.01 43.35 363.72 42.03Q362.44 40.72 360.12 40.31Q357.72 39.89 355.57 40.69Q353.42 41.49 351.86 43.31L343.76 36.95Q346.96 33.18 351.87 31.63Q356.8 30.08 363.15 31.2Q370.28 32.46 374.1 36.2Q377.92 39.94 376.97 45.28Q376.54 47.72 375.36 49.46Q374.19 51.2 372.79 52.3Q371.4 53.38 369.26 54.66Q366.92 56.05 365.73 57.1Q364.55 58.16 364.26 59.79L353.59 57.91ZM356.13 74.67Q353.19 74.15 351.59 71.98Q350 69.82 350.47 67.18Q350.95 64.47 353.14 63.08Q355.34 61.67 358.34 62.2Q361.34 62.73 362.95 64.81Q364.56 66.87 364.08 69.58Q363.61 72.22 361.37 73.71Q359.13 75.2 356.13 74.67Z" stroke="#271A58" stroke-opacity="1.000000" stroke-width="0.511614"/>
			<rect id="Frame 2043683095" rx="18.775000" width="105.960831" height="141.447784" transform="translate(320.035156 -25.943634) rotate(10.000000)" stroke="#271A58" stroke-opacity="1.000000" stroke-width="0.500000"/>
			<rect id="Frame 2043683101" rx="18.775000" width="105.960831" height="141.447784" transform="translate(431.033203 -6.371857) rotate(10.000000)" fill="#009EE4" fill-opacity="1.000000"/>
			<path id="?" d="M467.45 73.36Q466.11 74.74 465.68 77.16L474.29 78.68Q474.42 77.91 474.81 77.29Q475.08 76.87 475.47 76.51Q476.43 75.66 478.32 74.54Q480.05 73.51 481.16 72.64Q482.3 71.75 483.24 70.35Q484.19 68.94 484.54 66.97Q484.94 64.75 484.3 62.87Q483.71 61.11 482.22 59.65Q479.14 56.63 473.39 55.62Q468.26 54.72 464.29 55.96Q461.8 56.75 459.85 58.25Q458.7 59.13 457.75 60.25L464.28 65.38Q465.14 64.39 466.21 63.77Q466.72 63.48 467.27 63.27Q467.76 63.09 468.25 62.99Q469.55 62.72 470.94 62.97Q472.82 63.3 473.85 64.36Q474.42 64.94 474.61 65.63Q474.76 66.19 474.64 66.82Q474.6 67.07 474.51 67.31Q474.26 68.03 473.62 68.61Q472.79 69.38 471.17 70.45Q468.8 71.97 467.45 73.36ZM464.98 89.49Q466.1 90.4 467.73 90.69Q469.47 90.99 470.89 90.46Q471.45 90.25 471.96 89.91Q472.88 89.3 473.43 88.44Q473.96 87.62 474.14 86.58Q474.36 85.33 474.03 84.25Q473.78 83.44 473.23 82.73Q472.93 82.35 472.58 82.03Q471.38 80.96 469.51 80.63Q467.62 80.29 466.12 80.91Q465.7 81.09 465.32 81.33Q464.58 81.8 464.09 82.45Q463.39 83.36 463.16 84.64Q462.97 85.69 463.19 86.64Q463.41 87.63 464.07 88.52Q464.47 89.07 464.98 89.49Z" fill="#FFFFFF" fill-opacity="1.000000" fill-rule="evenodd"/>
			<path id="?" d="M465.68 77.16Q466.11 74.74 467.45 73.36Q468.8 71.97 471.17 70.45Q472.79 69.38 473.62 68.61Q474.46 67.84 474.64 66.82Q474.89 65.42 473.85 64.36Q472.82 63.3 470.94 62.97Q469.01 62.63 467.27 63.27Q465.54 63.91 464.28 65.38L457.75 60.25Q460.33 57.21 464.29 55.96Q468.26 54.72 473.39 55.62Q479.14 56.63 482.22 59.65Q485.31 62.66 484.54 66.97Q484.19 68.94 483.24 70.35Q482.3 71.75 481.16 72.64Q480.05 73.51 478.32 74.54Q476.43 75.66 475.47 76.51Q474.52 77.37 474.29 78.68L465.68 77.16ZM467.73 90.69Q465.35 90.27 464.07 88.52Q462.78 86.77 463.16 84.64Q463.55 82.46 465.32 81.33Q467.09 80.2 469.51 80.63Q471.93 81.05 473.23 82.73Q474.53 84.4 474.14 86.58Q473.76 88.71 471.96 89.91Q470.15 91.11 467.73 90.69Z" stroke="#271A58" stroke-opacity="1.000000" stroke-width="0.511614"/>
			<rect id="Frame 2043683101" rx="18.775000" width="105.960831" height="141.447784" transform="translate(431.033203 -6.371857) rotate(10.000000)" stroke="#271A58" stroke-opacity="1.000000" stroke-width="0.500000"/>
			<rect id="Frame 2043683104" rx="18.775000" width="105.960831" height="141.447784" transform="translate(-38.672852 61.177948) rotate(10.000000)" fill="#1FA46C" fill-opacity="1.000000"/>
			<path id="?" d="M-2.26 140.91Q-3.6 142.29 -4.03 144.71L4.58 146.23Q4.72 145.46 5.1 144.84Q5.37 144.42 5.77 144.06Q6.72 143.21 8.61 142.09Q10.34 141.06 11.46 140.19Q12.59 139.3 13.53 137.9Q14.49 136.49 14.84 134.52Q15.23 132.3 14.6 130.42Q14.01 128.66 12.52 127.2Q9.43 124.18 3.68 123.17Q-1.44 122.27 -5.41 123.51Q-7.91 124.3 -9.86 125.8Q-11 126.68 -11.96 127.8L-5.43 132.93Q-4.57 131.94 -3.5 131.32Q-2.99 131.03 -2.43 130.82Q-1.95 130.64 -1.45 130.54Q-0.16 130.27 1.24 130.52Q3.11 130.85 4.14 131.91Q4.72 132.49 4.9 133.18Q5.05 133.74 4.94 134.37Q4.89 134.62 4.81 134.86Q4.55 135.58 3.91 136.16Q3.08 136.93 1.46 138Q-0.9 139.52 -2.26 140.91ZM-4.72 157.04Q-3.61 157.95 -1.98 158.24Q-0.24 158.54 1.18 158.01Q1.74 157.8 2.25 157.46Q3.17 156.85 3.72 155.99Q4.25 155.17 4.43 154.13Q4.66 152.88 4.32 151.8Q4.08 150.99 3.52 150.28Q3.23 149.9 2.87 149.58Q1.67 148.5 -0.2 148.17Q-2.09 147.84 -3.59 148.46Q-4 148.64 -4.39 148.89Q-5.12 149.35 -5.62 150Q-6.32 150.91 -6.55 152.19Q-6.73 153.24 -6.52 154.19Q-6.29 155.18 -5.64 156.07Q-5.23 156.62 -4.72 157.04Z" fill="#FFFFFF" fill-opacity="1.000000" fill-rule="evenodd"/>
			<path id="?" d="M-4.03 144.71Q-3.6 142.29 -2.26 140.91Q-0.9 139.52 1.46 138Q3.08 136.93 3.91 136.16Q4.76 135.39 4.94 134.37Q5.19 132.97 4.14 131.91Q3.11 130.85 1.24 130.52Q-0.7 130.18 -2.43 130.82Q-4.17 131.46 -5.43 132.93L-11.96 127.8Q-9.37 124.76 -5.41 123.51Q-1.44 122.27 3.68 123.17Q9.43 124.18 12.52 127.2Q15.6 130.21 14.84 134.52Q14.49 136.49 13.53 137.9Q12.59 139.3 11.46 140.19Q10.34 141.06 8.61 142.09Q6.72 143.21 5.77 144.06Q4.81 144.92 4.58 146.23L-4.03 144.71ZM-1.98 158.24Q-4.35 157.82 -5.64 156.07Q-6.92 154.32 -6.55 152.19Q-6.16 150.01 -4.39 148.89Q-2.62 147.75 -0.2 148.17Q2.22 148.6 3.52 150.28Q4.82 151.95 4.43 154.13Q4.06 156.25 2.25 157.46Q0.44 158.66 -1.98 158.24Z" stroke="#271A58" stroke-opacity="1.000000" stroke-width="0.511614"/>
			<rect id="Frame 2043683104" rx="18.775000" width="105.960831" height="141.447784" transform="translate(-38.672852 61.177948) rotate(10.000000)" stroke="#271A58" stroke-opacity="1.000000" stroke-width="0.500000"/>
			<rect id="Frame 2043683096" rx="18.775000" width="105.960831" height="141.447784" transform="translate(72.324219 80.749847) rotate(10.000000)" fill="#F25050" fill-opacity="1.000000"/>
			<path id="?" d="M108.07 159.89Q106.41 161.6 105.88 164.6L116.55 166.48Q116.72 165.52 117.2 164.76Q117.53 164.23 118.02 163.8Q119.2 162.74 121.55 161.36Q123.69 160.07 125.08 158.99Q126.48 157.89 127.65 156.15Q128.83 154.42 129.26 151.97Q129.75 149.21 128.97 146.88Q128.23 144.7 126.39 142.89Q122.57 139.15 115.44 137.9Q109.09 136.78 104.16 138.32Q101.07 139.3 98.65 141.16Q97.23 142.25 96.05 143.64L104.15 150Q105.21 148.76 106.54 148Q107.17 147.64 107.86 147.38Q108.45 147.16 109.07 147.03Q110.67 146.7 112.41 147.01Q114.73 147.42 116.01 148.73Q116.72 149.45 116.95 150.3Q117.13 151 116.99 151.78Q116.94 152.1 116.83 152.39Q116.51 153.28 115.72 154Q114.7 154.96 112.68 156.28Q109.75 158.16 108.07 159.89ZM105.02 179.88Q106.4 181.01 108.42 181.36Q110.58 181.74 112.34 181.08Q113.03 180.82 113.66 180.4Q114.8 179.64 115.48 178.58Q116.14 177.57 116.37 176.28Q116.64 174.73 116.23 173.39Q115.93 172.39 115.24 171.5Q114.87 171.03 114.43 170.64Q112.95 169.3 110.63 168.89Q108.28 168.48 106.43 169.25Q105.91 169.47 105.43 169.77Q104.52 170.35 103.91 171.15Q103.04 172.29 102.76 173.88Q102.53 175.17 102.79 176.35Q103.07 177.57 103.88 178.68Q104.38 179.36 105.02 179.88Z" fill="#FFFFFF" fill-opacity="1.000000" fill-rule="evenodd"/>
			<path id="?" d="M105.88 164.6Q106.41 161.6 108.07 159.89Q109.75 158.16 112.68 156.28Q114.7 154.96 115.72 154Q116.77 153.04 116.99 151.78Q117.3 150.04 116.01 148.73Q114.73 147.42 112.41 147.01Q110.01 146.58 107.86 147.38Q105.71 148.18 104.15 150L96.05 143.64Q99.25 139.87 104.16 138.32Q109.09 136.78 115.44 137.9Q122.57 139.15 126.39 142.89Q130.21 146.63 129.26 151.97Q128.83 154.42 127.65 156.15Q126.48 157.89 125.08 158.99Q123.69 160.07 121.55 161.36Q119.2 162.74 118.02 163.8Q116.84 164.86 116.55 166.48L105.88 164.6ZM108.42 181.36Q105.48 180.84 103.88 178.68Q102.29 176.51 102.76 173.88Q103.24 171.17 105.43 169.77Q107.63 168.36 110.63 168.89Q113.63 169.42 115.24 171.5Q116.85 173.57 116.37 176.28Q115.9 178.91 113.66 180.4Q111.42 181.89 108.42 181.36Z" stroke="#271A58" stroke-opacity="1.000000" stroke-width="0.511614"/>
			<rect id="Frame 2043683096" rx="18.775000" width="105.960831" height="141.447784" transform="translate(72.324219 80.749847) rotate(10.000000)" stroke="#271A58" stroke-opacity="1.000000" stroke-width="0.500000"/>
			<rect id="Frame 2043683112" rx="18.775000" width="105.960831" height="141.447784" transform="translate(183.322266 100.321869) rotate(10.000000)" fill="#009EE4" fill-opacity="1.000000"/>
			<path id="?" d="M219.74 180.05Q218.4 181.44 217.97 183.86L226.58 185.37Q226.71 184.6 227.1 183.99Q227.37 183.56 227.76 183.21Q228.72 182.35 230.61 181.24Q232.34 180.2 233.46 179.33Q234.59 178.45 235.53 177.04Q236.48 175.64 236.83 173.67Q237.23 171.44 236.59 169.56Q236 167.8 234.51 166.34Q231.43 163.33 225.68 162.31Q220.55 161.41 216.58 162.66Q214.09 163.45 212.14 164.94Q210.99 165.82 210.04 166.95L216.57 172.08Q217.43 171.08 218.5 170.46Q219.01 170.17 219.56 169.96Q220.05 169.79 220.54 169.68Q221.84 169.42 223.23 169.66Q225.11 169.99 226.14 171.05Q226.71 171.63 226.9 172.32Q227.05 172.88 226.93 173.52Q226.89 173.77 226.8 174.01Q226.55 174.73 225.91 175.31Q225.08 176.08 223.46 177.14Q221.09 178.66 219.74 180.05ZM217.27 196.18Q218.39 197.09 220.02 197.38Q221.76 197.69 223.18 197.15Q223.74 196.94 224.25 196.6Q225.17 195.99 225.72 195.14Q226.25 194.32 226.43 193.27Q226.65 192.02 226.32 190.94Q226.07 190.14 225.52 189.42Q225.22 189.04 224.87 188.73Q223.67 187.65 221.8 187.32Q219.91 186.99 218.41 187.61Q217.99 187.78 217.61 188.03Q216.87 188.49 216.38 189.14Q215.68 190.06 215.45 191.34Q215.26 192.38 215.48 193.33Q215.7 194.32 216.36 195.21Q216.76 195.76 217.27 196.18Z" fill="#FFFFFF" fill-opacity="1.000000" fill-rule="evenodd"/>
			<path id="?" d="M217.97 183.86Q218.4 181.44 219.74 180.05Q221.09 178.66 223.46 177.14Q225.08 176.08 225.91 175.31Q226.75 174.53 226.93 173.52Q227.18 172.11 226.14 171.05Q225.11 169.99 223.23 169.66Q221.3 169.32 219.56 169.96Q217.83 170.61 216.57 172.08L210.04 166.95Q212.62 163.91 216.58 162.66Q220.55 161.41 225.68 162.31Q231.43 163.33 234.51 166.34Q237.6 169.36 236.83 173.67Q236.48 175.64 235.53 177.04Q234.59 178.45 233.46 179.33Q232.34 180.2 230.61 181.24Q228.72 182.35 227.76 183.21Q226.81 184.06 226.58 185.37L217.97 183.86ZM220.02 197.38Q217.64 196.96 216.36 195.21Q215.07 193.46 215.45 191.34Q215.84 189.15 217.61 188.03Q219.38 186.89 221.8 187.32Q224.22 187.75 225.52 189.42Q226.82 191.09 226.43 193.27Q226.05 195.4 224.25 196.6Q222.44 197.81 220.02 197.38Z" stroke="#271A58" stroke-opacity="1.000000" stroke-width="0.511614"/>
			<rect id="Frame 2043683112" rx="18.775000" width="105.960831" height="141.447784" transform="translate(183.322266 100.321869) rotate(10.000000)" stroke="#271A58" stroke-opacity="1.000000" stroke-width="0.500000"/>
			<rect id="Frame 2043683098" rx="18.775000" width="105.960831" height="141.447784" transform="translate(294.320312 119.893646) rotate(10.000000)" fill="#99D100" fill-opacity="1.000000"/>
			<path id="?" d="M330.07 199.03Q328.41 200.74 327.87 203.74L338.54 205.63Q338.71 204.67 339.2 203.91Q339.53 203.38 340.02 202.94Q341.2 201.88 343.54 200.5Q345.69 199.22 347.07 198.13Q348.47 197.04 349.64 195.3Q350.83 193.56 351.26 191.11Q351.75 188.36 350.96 186.02Q350.23 183.84 348.38 182.04Q344.56 178.3 337.43 177.04Q331.08 175.92 326.16 177.47Q323.06 178.44 320.65 180.3Q319.23 181.39 318.05 182.78L326.14 189.15Q327.2 187.91 328.54 187.14Q329.16 186.78 329.85 186.53Q330.45 186.3 331.07 186.18Q332.67 185.84 334.4 186.15Q336.73 186.56 338.01 187.87Q338.72 188.59 338.94 189.45Q339.13 190.14 338.99 190.93Q338.93 191.24 338.83 191.54Q338.51 192.43 337.72 193.15Q336.69 194.1 334.68 195.42Q331.75 197.3 330.07 199.03ZM327.01 219.02Q328.4 220.15 330.41 220.51Q332.57 220.89 334.34 220.22Q335.03 219.96 335.66 219.55Q336.8 218.79 337.48 217.73Q338.14 216.71 338.37 215.42Q338.64 213.87 338.23 212.53Q337.92 211.53 337.23 210.65Q336.87 210.17 336.43 209.78Q334.94 208.45 332.62 208.04Q330.28 207.62 328.42 208.39Q327.91 208.61 327.43 208.92Q326.52 209.49 325.9 210.29Q325.03 211.43 324.75 213.02Q324.52 214.31 324.79 215.49Q325.07 216.72 325.88 217.82Q326.38 218.5 327.01 219.02Z" fill="#FFFFFF" fill-opacity="1.000000" fill-rule="evenodd"/>
			<path id="?" d="M327.87 203.74Q328.41 200.74 330.07 199.03Q331.75 197.3 334.68 195.42Q336.69 194.1 337.72 193.15Q338.77 192.19 338.99 190.93Q339.3 189.19 338.01 187.87Q336.73 186.56 334.4 186.15Q332 185.73 329.85 186.53Q327.7 187.32 326.14 189.15L318.05 182.78Q321.25 179.02 326.16 177.47Q331.08 175.92 337.43 177.04Q344.56 178.3 348.38 182.04Q352.21 185.77 351.26 191.11Q350.83 193.56 349.64 195.3Q348.47 197.04 347.07 198.13Q345.69 199.22 343.54 200.5Q341.2 201.88 340.02 202.94Q338.83 204 338.54 205.63L327.87 203.74ZM330.41 220.51Q327.47 219.99 325.88 217.82Q324.29 215.65 324.75 213.02Q325.23 210.31 327.43 208.92Q329.62 207.51 332.62 208.04Q335.62 208.57 337.23 210.65Q338.84 212.71 338.37 215.42Q337.9 218.05 335.66 219.55Q333.42 221.04 330.41 220.51Z" stroke="#271A58" stroke-opacity="1.000000" stroke-width="0.511614"/>
			<rect id="Frame 2043683098" rx="18.775000" width="105.960831" height="141.447784" transform="translate(294.320312 119.893646) rotate(10.000000)" stroke="#271A58" stroke-opacity="1.000000" stroke-width="0.500000"/>
			<rect id="Frame 2043683102" rx="18.775000" width="105.960831" height="141.447784" transform="translate(405.318359 139.465546) rotate(10.000000)" fill="#FFC700" fill-opacity="1.000000"/>
			<path id="?" d="M441.73 219.2Q440.39 220.58 439.96 223L448.57 224.52Q448.71 223.74 449.1 223.13Q449.37 222.7 449.76 222.35Q450.71 221.5 452.6 220.38Q454.33 219.35 455.45 218.47Q456.58 217.59 457.52 216.18Q458.48 214.78 458.83 212.81Q459.22 210.58 458.59 208.7Q458 206.94 456.51 205.49Q453.43 202.47 447.67 201.46Q442.55 200.55 438.58 201.8Q436.08 202.59 434.13 204.09Q432.99 204.97 432.03 206.09L438.57 211.22Q439.42 210.22 440.5 209.61Q441 209.31 441.56 209.11Q442.04 208.93 442.54 208.83Q443.83 208.56 445.23 208.81Q447.11 209.14 448.14 210.19Q448.71 210.78 448.89 211.46Q449.04 212.03 448.93 212.66Q448.89 212.91 448.8 213.15Q448.54 213.87 447.91 214.45Q447.08 215.22 445.45 216.28Q443.09 217.8 441.73 219.2ZM439.27 235.32Q440.38 236.24 442.01 236.52Q443.75 236.83 445.18 236.29Q445.73 236.08 446.24 235.75Q447.16 235.13 447.71 234.28Q448.24 233.46 448.43 232.42Q448.65 231.17 448.32 230.09Q448.07 229.28 447.51 228.57Q447.22 228.19 446.86 227.87Q445.66 226.79 443.79 226.46Q441.9 226.13 440.41 226.75Q439.99 226.92 439.6 227.17Q438.87 227.64 438.37 228.28Q437.67 229.2 437.44 230.48Q437.26 231.52 437.47 232.48Q437.7 233.46 438.35 234.36Q438.76 234.91 439.27 235.32Z" fill="#FFFFFF" fill-opacity="1.000000" fill-rule="evenodd"/>
			<path id="?" d="M439.96 223Q440.39 220.58 441.73 219.2Q443.09 217.8 445.45 216.28Q447.08 215.22 447.91 214.45Q448.75 213.68 448.93 212.66Q449.18 211.26 448.14 210.19Q447.11 209.14 445.23 208.81Q443.29 208.46 441.56 209.11Q439.82 209.75 438.57 211.22L432.03 206.09Q434.62 203.05 438.58 201.8Q442.55 200.55 447.67 201.46Q453.43 202.47 456.51 205.49Q459.59 208.5 458.83 212.81Q458.48 214.78 457.52 216.18Q456.58 217.59 455.45 218.47Q454.33 219.35 452.6 220.38Q450.71 221.5 449.76 222.35Q448.8 223.21 448.57 224.52L439.96 223ZM442.01 236.52Q439.64 236.1 438.35 234.36Q437.07 232.61 437.44 230.48Q437.83 228.3 439.6 227.17Q441.37 226.04 443.79 226.46Q446.21 226.89 447.51 228.57Q448.81 230.23 448.43 232.42Q448.05 234.54 446.24 235.75Q444.43 236.95 442.01 236.52Z" stroke="#271A58" stroke-opacity="1.000000" stroke-width="0.511614"/>
			<rect id="Frame 2043683102" rx="18.775000" width="105.960831" height="141.447784" transform="translate(405.318359 139.465546) rotate(10.000000)" stroke="#271A58" stroke-opacity="1.000000" stroke-width="0.500000"/>
			<rect id="Frame 2043683109" rx="18.775000" width="105.960831" height="141.447784" transform="translate(-64.387695 207.015350) rotate(10.000000)" fill="#009EE4" fill-opacity="1.000000"/>
			<path id="?" d="M-27.97 286.75Q-29.32 288.13 -29.74 290.55L-21.14 292.07Q-21 291.29 -20.61 290.68Q-20.34 290.25 -19.95 289.9Q-18.99 289.05 -17.1 287.93Q-15.37 286.9 -14.26 286.02Q-13.13 285.14 -12.18 283.73Q-11.23 282.33 -10.88 280.36Q-10.48 278.13 -11.12 276.25Q-11.71 274.49 -13.2 273.04Q-16.28 270.02 -22.03 269.01Q-27.16 268.1 -31.13 269.35Q-33.63 270.14 -35.58 271.64Q-36.72 272.52 -37.67 273.64L-31.14 278.77Q-30.29 277.77 -29.21 277.16Q-28.7 276.86 -28.15 276.66Q-27.67 276.48 -27.17 276.38Q-25.88 276.11 -24.48 276.35Q-22.6 276.69 -21.57 277.74Q-21 278.33 -20.81 279.01Q-20.66 279.58 -20.78 280.21Q-20.82 280.46 -20.91 280.7Q-21.17 281.42 -21.8 282Q-22.63 282.77 -24.26 283.83Q-26.62 285.35 -27.97 286.75ZM-30.44 302.87Q-29.32 303.79 -27.69 304.07Q-25.95 304.38 -24.53 303.84Q-23.97 303.63 -23.47 303.3Q-22.54 302.68 -21.99 301.83Q-21.47 301.01 -21.28 299.97Q-21.06 298.72 -21.39 297.64Q-21.64 296.83 -22.19 296.12Q-22.49 295.74 -22.84 295.42Q-24.04 294.34 -25.91 294.01Q-27.8 293.68 -29.3 294.3Q-29.72 294.47 -30.11 294.72Q-30.84 295.19 -31.33 295.83Q-32.04 296.75 -32.26 298.03Q-32.45 299.07 -32.23 300.03Q-32.01 301.01 -31.35 301.91Q-30.95 302.46 -30.44 302.87Z" fill="#FFFFFF" fill-opacity="1.000000" fill-rule="evenodd"/>
			<path id="?" d="M-29.74 290.55Q-29.32 288.13 -27.97 286.75Q-26.62 285.35 -24.26 283.83Q-22.63 282.77 -21.8 282Q-20.96 281.23 -20.78 280.21Q-20.53 278.81 -21.57 277.74Q-22.6 276.69 -24.48 276.35Q-26.41 276.01 -28.15 276.66Q-29.88 277.3 -31.14 278.77L-37.67 273.64Q-35.09 270.6 -31.13 269.35Q-27.16 268.1 -22.03 269.01Q-16.28 270.02 -13.2 273.04Q-10.12 276.05 -10.88 280.36Q-11.23 282.33 -12.18 283.73Q-13.13 285.14 -14.26 286.02Q-15.37 286.9 -17.1 287.93Q-18.99 289.05 -19.95 289.9Q-20.9 290.76 -21.14 292.07L-29.74 290.55ZM-27.69 304.07Q-30.07 303.65 -31.35 301.91Q-32.64 300.16 -32.26 298.03Q-31.88 295.85 -30.11 294.72Q-28.33 293.59 -25.91 294.01Q-23.49 294.44 -22.19 296.12Q-20.89 297.78 -21.28 299.97Q-21.66 302.09 -23.47 303.3Q-25.27 304.5 -27.69 304.07Z" stroke="#271A58" stroke-opacity="1.000000" stroke-width="0.511614"/>
			<rect id="Frame 2043683109" rx="18.775000" width="105.960831" height="141.447784" transform="translate(-64.387695 207.015350) rotate(10.000000)" stroke="#271A58" stroke-opacity="1.000000" stroke-width="0.500000"/>
			<rect id="Frame 2043683105" rx="18.775000" width="105.960831" height="141.447784" transform="translate(46.609375 226.587128) rotate(10.000000)" fill="#99D100" fill-opacity="1.000000"/>
			<path id="?" d="M82.36 305.72Q80.69 307.44 80.16 310.44L90.83 312.32Q91 311.36 91.48 310.6Q91.82 310.07 92.31 309.64Q93.49 308.58 95.83 307.19Q97.98 305.91 99.36 304.83Q100.76 303.73 101.93 301.99Q103.11 300.25 103.55 297.81Q104.04 295.05 103.25 292.72Q102.52 290.54 100.67 288.73Q96.85 284.99 89.72 283.73Q83.37 282.61 78.45 284.16Q75.35 285.14 72.94 287Q71.52 288.09 70.34 289.48L78.43 295.84Q79.49 294.6 80.82 293.84Q81.45 293.47 82.14 293.22Q82.74 293 83.36 292.87Q84.96 292.54 86.69 292.84Q89.02 293.25 90.3 294.57Q91 295.29 91.23 296.14Q91.42 296.84 91.28 297.62Q91.22 297.93 91.12 298.23Q90.8 299.12 90.01 299.84Q88.98 300.79 86.97 302.11Q84.04 304 82.36 305.72ZM79.3 325.71Q80.69 326.85 82.7 327.2Q84.86 327.58 86.63 326.92Q87.32 326.66 87.95 326.24Q89.09 325.48 89.77 324.42Q90.42 323.4 90.65 322.11Q90.93 320.56 90.52 319.22Q90.21 318.22 89.52 317.34Q89.16 316.87 88.72 316.47Q87.23 315.14 84.91 314.73Q82.57 314.32 80.71 315.09Q80.19 315.3 79.71 315.61Q78.81 316.19 78.19 316.99Q77.32 318.12 77.04 319.71Q76.81 321 77.08 322.18Q77.36 323.41 78.17 324.51Q78.67 325.2 79.3 325.71Z" fill="#FFFFFF" fill-opacity="1.000000" fill-rule="evenodd"/>
			<path id="?" d="M80.16 310.44Q80.69 307.44 82.36 305.72Q84.04 304 86.97 302.11Q88.98 300.79 90.01 299.84Q91.06 298.88 91.28 297.62Q91.59 295.88 90.3 294.57Q89.02 293.25 86.69 292.84Q84.29 292.42 82.14 293.22Q79.99 294.02 78.43 295.84L70.34 289.48Q73.54 285.71 78.45 284.16Q83.37 282.61 89.72 283.73Q96.85 284.99 100.67 288.73Q104.49 292.47 103.55 297.81Q103.11 300.25 101.93 301.99Q100.76 303.73 99.36 304.83Q97.98 305.91 95.83 307.19Q93.49 308.58 92.31 309.64Q91.12 310.69 90.83 312.32L80.16 310.44ZM82.7 327.2Q79.76 326.68 78.17 324.51Q76.57 322.35 77.04 319.71Q77.52 317 79.71 315.61Q81.91 314.2 84.91 314.73Q87.91 315.26 89.52 317.34Q91.13 319.41 90.65 322.11Q90.19 324.75 87.95 326.24Q85.7 327.73 82.7 327.2Z" stroke="#271A58" stroke-opacity="1.000000" stroke-width="0.511614"/>
			<rect id="Frame 2043683105" rx="18.775000" width="105.960831" height="141.447784" transform="translate(46.609375 226.587128) rotate(10.000000)" stroke="#271A58" stroke-opacity="1.000000" stroke-width="0.500000"/>
			<rect id="Frame 2043683106" rx="18.775000" width="105.960831" height="141.447784" transform="translate(157.607422 246.159149) rotate(10.000000)" fill="#009EE4" fill-opacity="1.000000"/>
			<path id="?" d="M193.35 325.29Q191.69 327.01 191.16 330.01L201.83 331.89Q202 330.93 202.48 330.17Q202.82 329.64 203.3 329.21Q204.49 328.15 206.83 326.76Q208.97 325.48 210.36 324.4Q211.76 323.3 212.93 321.56Q214.11 319.82 214.55 317.38Q215.03 314.62 214.25 312.29Q213.52 310.11 211.67 308.3Q207.85 304.56 200.72 303.31Q194.37 302.19 189.45 303.73Q186.35 304.71 183.93 306.57Q182.52 307.66 181.33 309.05L189.43 315.41Q190.49 314.17 191.82 313.41Q192.45 313.05 193.14 312.79Q193.74 312.57 194.36 312.44Q195.96 312.11 197.69 312.42Q200.02 312.83 201.29 314.14Q202 314.86 202.23 315.71Q202.42 316.41 202.28 317.19Q202.22 317.51 202.12 317.8Q201.79 318.69 201.01 319.42Q199.98 320.37 197.96 321.69Q195.03 323.57 193.35 325.29ZM190.3 345.29Q191.68 346.42 193.7 346.77Q195.86 347.15 197.62 346.49Q198.31 346.23 198.94 345.81Q200.09 345.05 200.77 343.99Q201.42 342.98 201.65 341.68Q201.93 340.13 201.52 338.8Q201.21 337.79 200.52 336.91Q200.15 336.44 199.72 336.05Q198.23 334.71 195.91 334.3Q193.57 333.89 191.71 334.66Q191.19 334.88 190.71 335.18Q189.81 335.76 189.19 336.56Q188.32 337.7 188.04 339.28Q187.81 340.58 188.08 341.76Q188.35 342.98 189.17 344.09Q189.67 344.77 190.3 345.29Z" fill="#FFFFFF" fill-opacity="1.000000" fill-rule="evenodd"/>
			<path id="?" d="M191.16 330.01Q191.69 327.01 193.35 325.29Q195.03 323.57 197.96 321.69Q199.98 320.37 201.01 319.42Q202.05 318.45 202.28 317.19Q202.59 315.45 201.29 314.14Q200.02 312.83 197.69 312.42Q195.29 311.99 193.14 312.79Q190.99 313.59 189.43 315.41L181.33 309.05Q184.54 305.28 189.45 303.73Q194.37 302.19 200.72 303.31Q207.85 304.56 211.67 308.3Q215.49 312.04 214.55 317.38Q214.11 319.82 212.93 321.56Q211.76 323.3 210.36 324.4Q208.97 325.48 206.83 326.76Q204.49 328.15 203.3 329.21Q202.12 330.27 201.83 331.89L191.16 330.01ZM193.7 346.77Q190.76 346.25 189.17 344.09Q187.57 341.92 188.04 339.28Q188.52 336.58 190.71 335.18Q192.91 333.77 195.91 334.3Q198.91 334.83 200.52 336.91Q202.13 338.98 201.65 341.68Q201.19 344.32 198.94 345.81Q196.7 347.3 193.7 346.77Z" stroke="#271A58" stroke-opacity="1.000000" stroke-width="0.511614"/>
			<rect id="Frame 2043683106" rx="18.775000" width="105.960831" height="141.447784" transform="translate(157.607422 246.159149) rotate(10.000000)" stroke="#271A58" stroke-opacity="1.000000" stroke-width="0.500000"/>
			<rect id="Frame 2043683107" rx="18.775000" width="105.960831" height="141.447784" transform="translate(268.605469 265.730927) rotate(10.000000)" fill="#AD61FF" fill-opacity="1.000000"/>
			<path id="?" d="M305.02 345.46Q303.68 346.84 303.25 349.26L311.86 350.78Q311.99 350.01 312.38 349.4Q312.65 348.97 313.04 348.62Q314 347.76 315.89 346.65Q317.62 345.61 318.74 344.74Q319.87 343.85 320.81 342.45Q321.76 341.05 322.11 339.08Q322.51 336.85 321.88 334.97Q321.29 333.21 319.79 331.75Q316.71 328.74 310.96 327.72Q305.84 326.82 301.87 328.07Q299.37 328.85 297.42 330.35Q296.28 331.23 295.32 332.35L301.85 337.49Q302.71 336.49 303.78 335.87Q304.29 335.58 304.85 335.37Q305.33 335.19 305.83 335.09Q307.12 334.82 308.51 335.07Q310.39 335.4 311.42 336.46Q312 337.04 312.18 337.73Q312.33 338.29 312.22 338.93Q312.17 339.18 312.09 339.42Q311.83 340.13 311.19 340.72Q310.36 341.48 308.74 342.55Q306.37 344.07 305.02 345.46ZM302.56 361.59Q303.67 362.5 305.3 362.79Q307.04 363.1 308.46 362.56Q309.02 362.35 309.53 362.01Q310.45 361.4 311 360.55Q311.53 359.73 311.71 358.68Q311.93 357.43 311.6 356.35Q311.35 355.55 310.8 354.83Q310.5 354.45 310.15 354.13Q308.95 353.06 307.08 352.73Q305.19 352.4 303.69 353.02Q303.27 353.19 302.89 353.44Q302.16 353.9 301.66 354.55Q300.96 355.47 300.73 356.75Q300.55 357.79 300.76 358.74Q300.98 359.73 301.64 360.62Q302.04 361.17 302.56 361.59Z" fill="#FFFFFF" fill-opacity="1.000000" fill-rule="evenodd"/>
			<path id="?" d="M303.25 349.26Q303.68 346.84 305.02 345.46Q306.37 344.07 308.74 342.55Q310.36 341.48 311.19 340.72Q312.04 339.94 312.22 338.93Q312.47 337.52 311.42 336.46Q310.39 335.4 308.51 335.07Q306.58 334.73 304.85 335.37Q303.11 336.02 301.85 337.49L295.32 332.35Q297.91 329.32 301.87 328.07Q305.84 326.82 310.96 327.72Q316.71 328.74 319.79 331.75Q322.88 334.77 322.11 339.08Q321.76 341.05 320.81 342.45Q319.87 343.85 318.74 344.74Q317.62 345.61 315.89 346.65Q314 347.76 313.04 348.62Q312.09 349.47 311.86 350.78L303.25 349.26ZM305.3 362.79Q302.93 362.37 301.64 360.62Q300.35 358.87 300.73 356.75Q301.12 354.56 302.89 353.44Q304.66 352.3 307.08 352.73Q309.5 353.16 310.8 354.83Q312.1 356.5 311.71 358.68Q311.34 360.81 309.53 362.01Q307.72 363.22 305.3 362.79Z" stroke="#271A58" stroke-opacity="1.000000" stroke-width="0.511614"/>
			<rect id="Frame 2043683107" rx="18.775000" width="105.960831" height="141.447784" transform="translate(268.605469 265.730927) rotate(10.000000)" stroke="#271A58" stroke-opacity="1.000000" stroke-width="0.500000"/>
			<rect id="Frame 2043683108" rx="18.775000" width="105.960831" height="141.447784" transform="translate(379.602539 285.302948) rotate(10.000000)" fill="#565EEF" fill-opacity="1.000000"/>
			<path id="?" d="M416.02 365.03Q414.68 366.42 414.25 368.84L422.86 370.35Q422.99 369.58 423.38 368.97Q423.65 368.54 424.04 368.19Q425 367.34 426.89 366.22Q428.62 365.19 429.74 364.31Q430.87 363.43 431.81 362.02Q432.76 360.62 433.11 358.65Q433.51 356.42 432.88 354.54Q432.28 352.78 430.79 351.32Q427.71 348.31 421.96 347.29Q416.84 346.39 412.86 347.64Q410.37 348.43 408.42 349.93Q407.27 350.8 406.32 351.93L412.85 357.06Q413.71 356.06 414.78 355.44Q415.29 355.15 415.84 354.95Q416.33 354.77 416.82 354.66Q418.12 354.4 419.51 354.64Q421.39 354.97 422.42 356.03Q422.99 356.61 423.18 357.3Q423.33 357.86 423.21 358.5Q423.17 358.75 423.08 358.99Q422.83 359.71 422.19 360.29Q421.36 361.06 419.74 362.12Q417.37 363.64 416.02 365.03ZM413.55 381.16Q414.67 382.07 416.3 382.36Q418.04 382.67 419.46 382.13Q420.02 381.92 420.53 381.58Q421.45 380.97 422 380.12Q422.53 379.3 422.71 378.26Q422.93 377.01 422.6 375.92Q422.35 375.12 421.8 374.41Q421.5 374.02 421.15 373.71Q419.95 372.63 418.08 372.3Q416.19 371.97 414.69 372.59Q414.27 372.76 413.89 373.01Q413.15 373.48 412.66 374.12Q411.96 375.04 411.73 376.32Q411.54 377.36 411.76 378.31Q411.98 379.3 412.64 380.19Q413.04 380.74 413.55 381.16Z" fill="#FFFFFF" fill-opacity="1.000000" fill-rule="evenodd"/>
			<path id="?" d="M414.25 368.84Q414.68 366.42 416.02 365.03Q417.37 363.64 419.74 362.12Q421.36 361.06 422.19 360.29Q423.03 359.51 423.21 358.5Q423.46 357.09 422.42 356.03Q421.39 354.97 419.51 354.64Q417.58 354.3 415.84 354.95Q414.11 355.59 412.85 357.06L406.32 351.93Q408.9 348.89 412.86 347.64Q416.84 346.39 421.96 347.29Q427.71 348.31 430.79 351.32Q433.88 354.34 433.11 358.65Q432.76 360.62 431.81 362.02Q430.87 363.43 429.74 364.31Q428.62 365.19 426.89 366.22Q425 367.34 424.04 368.19Q423.09 369.04 422.86 370.35L414.25 368.84ZM416.3 382.36Q413.92 381.94 412.64 380.19Q411.35 378.44 411.73 376.32Q412.12 374.13 413.89 373.01Q415.66 371.87 418.08 372.3Q420.5 372.73 421.8 374.41Q423.1 376.07 422.71 378.26Q422.33 380.38 420.53 381.58Q418.72 382.79 416.3 382.36Z" stroke="#271A58" stroke-opacity="1.000000" stroke-width="0.511614"/>
			<rect id="Frame 2043683108" rx="18.775000" width="105.960831" height="141.447784" transform="translate(379.602539 285.302948) rotate(10.000000)" stroke="#271A58" stroke-opacity="1.000000" stroke-width="0.500000"/>
			<g filter="url(#filter_14_3949_dd)">
				<rect id="Frame 2043683065" rx="19.275000" width="138.632965" height="184.677322" transform="translate(170.971680 76.198944) rotate(9.999999)" fill="#FFC700" fill-opacity="1.000000"/>
				<rect id="Frame 2043683065" rx="19.275000" width="138.632965" height="184.677322" transform="translate(170.971680 76.198944) rotate(9.999999)" stroke="#271A58" stroke-opacity="1.000000" stroke-width="0.500000"/>
				<rect id="Frame 2043683065" rx="19.275000" width="138.632965" height="184.677322" transform="translate(170.971680 76.198944) rotate(9.999999)" stroke="#000000" stroke-opacity="0.200000" stroke-width="0.500000"/>
			</g>
			<path id="✊" d="" stroke="#271A58" stroke-opacity="1.000000" stroke-width="0.634167"/>
		</g>
		<rect id="Frame 2043683020" rx="17.474174" width="106.948349" height="34.948349" transform="translate(67.209419 368.597321)" fill="#F7F7F7" fill-opacity="1.000000"/>
		<path id="Игра №4" d="M142.5 384.62Q143.13 384.94 143.93 384.94Q144.73 384.94 145.37 384.61Q145.38 384.61 145.39 384.6Q145.84 384.37 146.15 384.02Q146.28 383.86 146.4 383.68Q146.51 383.49 146.59 383.28Q146.76 382.85 146.76 382.35Q146.76 381.82 146.58 381.37Q146.5 381.19 146.4 381.02Q146.27 380.81 146.11 380.64Q145.81 380.31 145.39 380.1Q144.74 379.77 143.93 379.77Q143.11 379.77 142.46 380.1Q142.05 380.31 141.75 380.62Q141.58 380.8 141.45 381.02Q141.34 381.2 141.26 381.39Q141.08 381.83 141.08 382.35Q141.08 382.84 141.24 383.27Q141.33 383.48 141.45 383.68Q141.57 383.87 141.72 384.03Q142.02 384.38 142.46 384.6Q142.48 384.61 142.5 384.62ZM86.01 379.87L84.42 379.87L84.42 391.07L85.89 391.07L92.53 382.44L92.53 391.07L94.1 391.07L94.1 379.87L92.63 379.87L86.01 388.51L86.01 379.87ZM139.62 379.87L138.02 379.87L138.02 388.22L131.3 379.87L129.99 379.87L129.99 391.07L131.59 391.07L131.59 382.72L138.31 391.07L139.62 391.07L139.62 379.87ZM155.75 388.31L157.88 388.31L157.88 386.94L155.75 386.94L155.75 384.51L154.25 384.51L154.25 386.94L149.94 386.94L155.43 379.87L153.7 379.87L147.98 387.2L147.98 388.31L154.2 388.31L154.2 391.07L155.75 391.07L155.75 388.31ZM142.85 380.98Q143.29 380.68 143.93 380.68Q144.52 380.68 144.94 380.95Q145.08 381.04 145.2 381.15Q145.37 381.31 145.48 381.51Q145.69 381.87 145.69 382.35Q145.69 382.82 145.49 383.17Q145.38 383.38 145.2 383.55Q145.08 383.66 144.94 383.75Q144.52 384.01 143.93 384.01Q143.33 384.01 142.9 383.75Q142.77 383.66 142.65 383.55Q142.46 383.37 142.34 383.16Q142.15 382.8 142.15 382.35Q142.15 381.87 142.36 381.51Q142.47 381.31 142.64 381.15Q142.74 381.05 142.85 380.98ZM111.59 382.92Q110.71 382.51 109.64 382.51Q108.71 382.51 107.94 382.85Q107.93 382.86 107.91 382.87Q107.55 383.03 107.25 383.27Q106.89 383.55 106.62 383.93L106.62 382.59L105.14 382.59L105.14 394.17L106.68 394.17L106.68 389.79Q106.99 390.18 107.39 390.47Q107.66 390.67 107.96 390.81Q108 390.83 108.04 390.85Q108.77 391.16 109.64 391.16Q110.71 391.16 111.59 390.75Q111.72 390.69 111.85 390.62Q112.31 390.36 112.68 390.01Q113.08 389.61 113.37 389.09Q113.4 389.05 113.42 389.01Q113.92 388.06 113.92 386.83Q113.92 385.57 113.39 384.6Q113.38 384.59 113.37 384.57Q113.09 384.07 112.7 383.69Q112.32 383.32 111.85 383.05Q111.72 382.98 111.59 382.92ZM121.79 383.37Q120.86 382.51 119.09 382.51Q118.07 382.51 117.16 382.79Q116.25 383.07 115.59 383.59L116.23 384.75Q116.73 384.33 117.45 384.09Q117.93 383.92 118.44 383.86Q118.68 383.84 118.92 383.84Q120.04 383.84 120.61 384.36Q120.71 384.45 120.79 384.55Q121.19 385.05 121.19 385.88L121.19 386.19L118.76 386.19Q116.99 386.19 116.17 386.87Q115.82 387.16 115.62 387.53Q115.35 388.02 115.35 388.67Q115.35 389.25 115.58 389.72Q115.8 390.15 116.21 390.48Q117.06 391.16 118.49 391.16Q119.46 391.16 120.17 390.85Q120.74 390.61 121.09 390.18Q121.19 390.07 121.27 389.95L121.27 391.07L122.73 391.07L122.73 385.95Q122.73 384.39 121.95 383.54Q121.88 383.45 121.79 383.37ZM98.87 383.93L103.57 383.93L103.57 382.59L97.33 382.59L97.33 391.07L98.87 391.07L98.87 383.93ZM110.73 389.57Q110.17 389.82 109.51 389.82Q108.94 389.82 108.44 389.63Q108.24 389.55 108.05 389.45Q107.77 389.28 107.54 389.06Q107.24 388.77 107.03 388.39Q106.66 387.71 106.66 386.83Q106.66 385.95 107.04 385.27Q107.26 384.87 107.58 384.58Q107.8 384.38 108.06 384.23Q108.23 384.13 108.4 384.06Q108.91 383.85 109.51 383.85Q110.2 383.85 110.77 384.11Q110.87 384.16 110.98 384.22Q111.21 384.35 111.41 384.53Q111.76 384.83 112 385.27Q112 385.28 112.01 385.29Q112.37 385.96 112.37 386.83Q112.37 387.68 112.02 388.35Q112.01 388.37 112 388.39Q111.77 388.81 111.43 389.11Q111.22 389.3 110.98 389.45Q110.85 389.52 110.73 389.57ZM146.46 386.2L141.4 386.2L141.4 387.24L146.46 387.24L146.46 386.2ZM120.26 389.59Q119.62 389.98 118.74 389.98Q117.86 389.98 117.37 389.61Q117.14 389.44 117.02 389.22Q116.87 388.95 116.87 388.6Q116.87 388.19 117.06 387.91Q117.48 387.29 118.83 387.29L121.19 387.29L121.19 388.47Q121.02 388.9 120.73 389.21Q120.52 389.43 120.26 389.59Z" fill="#271A58" fill-opacity="1.000000" fill-rule="evenodd"/>
		<path id="Камень, ножницы,  бумага" d="M74.55 442.04L78.13 442.04L83.96 451.07L89.84 451.07L82.3 439.48L89.62 428.67L84.15 428.67L78.26 437.72L74.55 437.72L74.55 428.67L69.4 428.67L69.4 451.07L74.55 451.07L74.55 442.04ZM104.86 435.5Q102.72 433.6 98.72 433.6Q97.2 433.6 95.74 433.89Q95.2 434 94.67 434.15Q92.7 434.68 91.29 435.68L93.08 439.16Q94.01 438.43 95.34 438Q96.23 437.7 97.13 437.61Q97.59 437.56 98.04 437.56Q100.03 437.56 101.02 438.44Q101.23 438.63 101.39 438.84Q102.01 439.67 102.01 440.96L98.04 440.96Q94.26 440.96 92.46 442.33Q91.68 442.92 91.24 443.7Q90.65 444.74 90.65 446.11Q90.65 447.16 91.03 448.06Q91.19 448.45 91.42 448.8Q91.5 448.92 91.58 449.03Q92.33 450.05 93.64 450.65Q95.1 451.32 97.08 451.32Q100.15 451.32 101.67 449.79Q102.05 449.41 102.33 448.93L102.33 451.07L107.01 451.07L107.01 441.25Q107.01 437.83 105.3 435.95Q105.09 435.71 104.86 435.5ZM154.07 443.86Q154.16 442.62 154.16 442.52Q154.16 439.89 153.04 437.89Q153.02 437.85 152.99 437.8Q152.37 436.72 151.5 435.9Q150.74 435.19 149.78 434.68Q149.48 434.53 149.18 434.39Q147.37 433.6 145.21 433.6Q143.04 433.6 141.21 434.39Q140.86 434.55 140.52 434.73Q139.43 435.32 138.58 436.15Q137.8 436.92 137.22 437.9Q136.91 438.42 136.68 438.98Q136.02 440.58 136.02 442.46Q136.02 444.49 136.79 446.18Q136.98 446.62 137.23 447.04Q137.58 447.61 138.01 448.11Q139.09 449.38 140.7 450.19Q142.94 451.32 145.85 451.32Q149.67 451.32 151.99 449.46Q152.51 449.04 152.95 448.54L150.3 445.66Q149.4 446.52 148.36 446.93Q147.32 447.32 145.98 447.32Q144.06 447.32 142.76 446.43Q142.73 446.41 142.71 446.4Q142.1 445.96 141.7 445.39Q141.24 444.72 141.05 443.86L154.07 443.86ZM128.15 440.76L128.15 451.07L132.66 451.07L132.6 433.85L127.93 433.85L122.07 443.8L116.57 433.85L111.35 433.85L111.35 451.07L115.87 451.07L115.87 440.73L120.89 449.4L123 449.4L128.15 440.76ZM162.97 433.85L158 433.85L158 451.07L162.97 451.07L162.97 444.64L170.46 444.64L170.46 451.07L175.45 451.07L175.45 433.85L170.46 433.85L170.46 440.57L162.97 440.57L162.97 433.85ZM194.67 440.88Q192.89 439.39 189.53 439.36L185.17 439.36L185.17 433.85L180.21 433.85L180.21 451.07L188.85 451.1Q192.47 451.1 194.47 449.52Q195.18 448.96 195.64 448.23Q196.47 446.92 196.47 445.08Q196.47 443.16 195.58 441.86Q195.2 441.32 194.67 440.88ZM143 437.92Q143.97 437.37 145.24 437.37Q146.41 437.37 147.33 437.86Q147.71 438.06 148.05 438.35Q148.43 438.67 148.71 439.05Q149.29 439.86 149.46 440.96L140.98 440.96Q141.17 439.74 141.84 438.9Q142.08 438.59 142.39 438.33Q142.68 438.1 143 437.92ZM190.61 446.94Q189.85 447.58 188.41 447.54L185.17 447.54L185.17 442.55L188.41 442.59Q189.88 442.62 190.63 443.2Q190.76 443.3 190.88 443.43Q191.39 444 191.39 445.02Q191.39 446.06 190.87 446.68Q190.76 446.82 190.61 446.94ZM100.25 447.56Q99.39 447.97 98.33 447.97Q97.02 447.97 96.26 447.4Q95.91 447.14 95.72 446.79Q95.51 446.39 95.51 445.88Q95.51 445.27 95.79 444.85Q96.44 443.86 98.58 443.86L102.01 443.86L102.01 445.63Q101.75 446.35 101.26 446.85Q100.97 447.15 100.6 447.37Q100.43 447.47 100.25 447.56ZM202.87 445.51Q202.18 445.11 201.27 445.11Q200.39 445.11 199.7 445.49Q199.35 445.68 199.05 445.97Q198.77 446.23 198.58 446.54Q198.16 447.24 198.16 448.18Q198.16 448.99 198.49 449.64Q198.55 449.76 198.63 449.87Q198.85 450.21 199.15 450.46Q199.48 450.74 199.9 450.91L198.48 456L201.66 456L203.48 451.39Q204.02 450.11 204.18 449.47Q204.34 448.82 204.34 448.18Q204.34 447.21 203.91 446.51Q203.73 446.21 203.48 445.97Q203.2 445.69 202.87 445.51ZM94.69 489.31Q96.77 490.32 99.35 490.32Q102.03 490.32 104.14 489.23Q104.18 489.21 104.22 489.19Q105.54 488.49 106.51 487.45Q107.11 486.81 107.57 486.04Q107.84 485.6 108.04 485.15Q108.79 483.47 108.79 481.46Q108.79 479.45 108.04 477.77Q107.84 477.31 107.57 476.88Q107.1 476.1 106.49 475.45Q105.53 474.42 104.22 473.73Q104.18 473.71 104.14 473.69Q102.03 472.6 99.35 472.6Q96.77 472.6 94.69 473.62Q94.58 473.67 94.46 473.73Q93.14 474.43 92.16 475.46Q91.56 476.11 91.09 476.88Q90.84 477.3 90.64 477.73Q89.88 479.42 89.88 481.46Q89.88 483.49 90.64 485.18Q90.84 485.62 91.09 486.04Q91.55 486.8 92.14 487.43Q93.12 488.48 94.46 489.19Q94.58 489.25 94.69 489.31ZM74.04 472.85L69.08 472.85L69.08 490.07L74.04 490.07L74.04 483.64L81.53 483.64L81.53 490.07L86.52 490.07L86.52 472.85L81.53 472.85L81.53 479.57L74.04 479.57L74.04 472.85ZM126.33 483.54L128.72 483.54L132.37 490.07L138.29 490.07L132.86 481.17L137.88 472.85L132.6 472.85L128.75 479.54L126.33 479.54L126.33 472.85L121.4 472.85L121.4 479.54L118.94 479.54L115.13 472.85L109.85 472.85L114.87 481.17L109.47 490.07L115.35 490.07L119 483.54L121.4 483.54L121.4 490.07L126.33 490.07L126.33 483.54ZM145.85 472.85L140.89 472.85L140.89 490.07L145.85 490.07L145.85 483.64L153.34 483.64L153.34 490.07L158.33 490.07L158.33 472.85L153.34 472.85L153.34 479.57L145.85 479.57L145.85 472.85ZM168.05 472.85L163.09 472.85L163.09 490.07L167.7 490.07L176.05 479.82L176.05 490.07L181.02 490.07L181.02 472.85L176.44 472.85L168.05 483.09L168.05 472.85ZM205.2 493.84L205.2 485.97L202.71 485.97L202.71 472.85L197.72 472.85L197.72 485.97L190.77 485.97L190.77 472.85L185.81 472.85L185.81 490.07L200.56 490.07L200.56 493.84L205.2 493.84ZM222.48 479.86Q220.76 478.39 217.4 478.36L213.3 478.36L213.3 472.85L208.34 472.85L208.34 490.07L216.72 490.1Q220.31 490.1 222.26 488.54Q222.88 488.04 223.3 487.41Q224.22 486.05 224.22 484.08Q224.22 482 223.22 480.65Q222.9 480.22 222.48 479.86ZM231.03 472.85L226.07 472.85L226.07 490.07L231.03 490.07L231.03 472.85ZM101.46 485.73Q100.54 486.22 99.35 486.22Q98.19 486.22 97.28 485.75Q96.68 485.44 96.18 484.93Q95.96 484.7 95.78 484.44Q94.93 483.25 94.93 481.46Q94.93 479.68 95.77 478.49Q95.95 478.23 96.18 477.99Q96.69 477.47 97.29 477.16Q98.2 476.69 99.35 476.69Q100.53 476.69 101.45 477.18Q102.03 477.49 102.5 477.99Q102.71 478.21 102.89 478.45Q103.74 479.65 103.74 481.46Q103.74 483.28 102.88 484.48Q102.71 484.72 102.5 484.93Q102.03 485.43 101.46 485.73ZM218.48 485.94Q217.72 486.58 216.28 486.54L213.3 486.54L213.3 481.55L216.28 481.59Q217.75 481.62 218.5 482.2Q218.63 482.3 218.75 482.43Q219.26 483 219.26 484.02Q219.26 485.06 218.74 485.68Q218.63 485.82 218.48 485.94ZM239.26 484.51Q238.57 484.11 237.66 484.11Q236.77 484.11 236.08 484.49Q235.73 484.68 235.43 484.97Q235.16 485.23 234.97 485.54Q234.55 486.24 234.55 487.18Q234.55 487.99 234.88 488.64Q234.94 488.76 235.01 488.87Q235.23 489.21 235.53 489.46Q235.86 489.74 236.28 489.91L234.87 495L238.04 495L239.86 490.39Q240.41 489.11 240.56 488.47Q240.73 487.82 240.73 487.18Q240.73 486.21 240.3 485.51Q240.12 485.21 239.86 484.97Q239.58 484.69 239.26 484.51ZM83.35 514.04Q81.49 513.03 79.03 513.03Q77.17 513.03 75.6 513.69Q74.58 514.12 73.74 514.79Q73.31 515.14 72.92 515.56Q73.16 513.25 74.42 511.93Q74.5 511.84 74.59 511.75Q76.02 510.41 78.97 509.83L86.2 508.4L85.53 504.11L77.33 505.74Q73.16 506.6 70.92 509.15Q70.65 509.46 70.41 509.79Q68.15 512.87 68.15 518.06Q68.15 523.66 70.73 526.56Q71.45 527.37 72.32 527.95Q74.57 529.45 77.81 529.45Q80.54 529.45 82.68 528.41Q84.13 527.71 85.15 526.6Q85.63 526.08 86.02 525.46Q86.29 525.04 86.5 524.59Q87.23 523.01 87.23 521.1Q87.23 518.7 86.22 516.88Q85.76 516.04 85.11 515.37Q84.36 514.59 83.35 514.04ZM148.7 513.5Q146.56 511.6 142.56 511.6Q141.04 511.6 139.58 511.89Q139.04 512 138.51 512.15Q136.54 512.68 135.13 513.68L136.92 517.16Q137.85 516.43 139.18 516Q140.07 515.7 140.97 515.61Q141.43 515.56 141.88 515.56Q143.87 515.56 144.86 516.44Q145.07 516.63 145.23 516.84Q145.85 517.67 145.85 518.96L141.88 518.96Q138.1 518.96 136.3 520.33Q135.52 520.92 135.08 521.7Q134.49 522.74 134.49 524.11Q134.49 525.16 134.87 526.06Q135.03 526.45 135.26 526.8Q135.34 526.92 135.42 527.03Q136.17 528.05 137.48 528.65Q138.94 529.32 140.92 529.32Q143.99 529.32 145.51 527.79Q145.89 527.41 146.17 526.93L146.17 529.07L150.85 529.07L150.85 519.25Q150.85 515.83 149.14 513.95Q148.93 513.71 148.7 513.5ZM184.47 513.5Q182.33 511.6 178.33 511.6Q176.81 511.6 175.35 511.89Q174.82 512 174.29 512.15Q172.32 512.68 170.9 513.68L172.7 517.16Q173.63 516.43 174.96 516Q175.84 515.7 176.75 515.61Q177.2 515.56 177.66 515.56Q179.65 515.56 180.64 516.44Q180.84 516.63 181.01 516.84Q181.63 517.67 181.63 518.96L177.66 518.96Q173.88 518.96 172.08 520.33Q171.3 520.92 170.86 521.7Q170.27 522.74 170.27 524.11Q170.27 525.16 170.65 526.06Q170.81 526.45 171.04 526.8Q171.11 526.92 171.2 527.03Q171.95 528.05 173.25 528.65Q174.72 529.32 176.7 529.32Q179.77 529.32 181.29 527.79Q181.67 527.41 181.95 526.93L181.95 529.07L186.62 529.07L186.62 519.25Q186.62 515.83 184.92 513.95Q184.71 513.71 184.47 513.5ZM99.61 530.12L107.38 511.85L102.59 511.85L97.72 523.53L92.89 511.85L87.73 511.85L95.2 529.19L95.13 529.36Q94.62 530.5 93.98 531Q93.97 531 93.96 531.01Q93.32 531.5 92.31 531.5Q91.58 531.5 90.82 531.21Q90.23 530.99 89.75 530.62Q89.62 530.52 89.5 530.41L87.67 533.96Q88.51 534.7 89.81 535.11Q90.81 535.43 91.82 535.5Q92.14 535.53 92.47 535.53Q94.67 535.53 96.29 534.56Q96.49 534.44 96.68 534.31Q98.42 533.1 99.61 530.12ZM126.59 518.76L126.59 529.07L131.09 529.07L131.03 511.85L126.36 511.85L120.5 521.8L115 511.85L109.78 511.85L109.78 529.07L114.3 529.07L114.3 518.73L119.32 527.4L121.43 527.4L126.59 518.76ZM160.15 515.95L168.99 515.95L168.99 511.85L155.19 511.85L155.19 529.07L160.15 529.07L160.15 515.95ZM80.09 525.01Q79.14 525.58 77.85 525.58Q76.63 525.58 75.7 525.07Q75.18 524.79 74.74 524.35Q74.39 523.99 74.14 523.57Q73.53 522.54 73.53 521.16Q73.53 519.65 74.23 518.63Q74.44 518.32 74.71 518.06Q74.97 517.81 75.26 517.62Q76.32 516.91 77.85 516.91Q79.31 516.91 80.33 517.58Q80.65 517.79 80.93 518.06Q81.19 518.31 81.39 518.61Q82.1 519.64 82.1 521.16Q82.1 522.52 81.51 523.54Q81.27 523.97 80.93 524.33Q80.55 524.74 80.09 525.01ZM144.09 525.56Q143.23 525.96 142.17 525.96Q140.86 525.96 140.1 525.4Q139.75 525.14 139.57 524.79Q139.35 524.39 139.35 523.88Q139.35 523.27 139.63 522.85Q140.28 521.86 142.42 521.86L145.85 521.86L145.85 523.63Q145.59 524.35 145.1 524.85Q144.81 525.15 144.44 525.37Q144.27 525.47 144.09 525.56ZM179.87 525.56Q179.01 525.96 177.95 525.96Q176.64 525.96 175.88 525.4Q175.53 525.14 175.34 524.79Q175.13 524.39 175.13 523.88Q175.13 523.27 175.41 522.85Q176.05 521.86 178.2 521.86L181.63 521.86L181.63 523.63Q181.37 524.35 180.88 524.85Q180.59 525.15 180.22 525.37Q180.05 525.47 179.87 525.56Z" fill="#202027" fill-opacity="1.000000" fill-rule="evenodd"/>
	</g>
</svg>
